<?xml version="1.0" encoding="utf-8"?>
<!-- Svg Vector Icons : http://www.onlinewebfonts.com/icon -->
<!DOCTYPE svg PUBLIC "-//W3C//DTD SVG 1.1//EN" "http://www.w3.org/Graphics/SVG/1.1/DTD/svg11.dtd">
<svg version="1.1" fill="#f2f2f2" xmlns="http://www.w3.org/2000/svg" xmlns:xlink="http://www.w3.org/1999/xlink" x="0px" y="0px" viewBox="0 0 1000 1000" enable-background="new 0 0 1000 1000" xml:space="preserve">
<g><path d="M956,106.4H44c-18.8,0-34,15.2-34,33.9v593.3c0,18.8,15.2,34,34,34h211.7l-18.3-67.9H77.9V174.4H922v525.4H770.3c39.9,16.7,77.4,39.6,111.1,67.9H956c18.8,0,34-15.2,34-34V140.4C990,121.6,974.8,106.4,956,106.4z"/><path d="M731.5,757.5c-3.6-1.4-7.3-2.7-10.9-3.9c-2.5-0.9-5-1.7-7.6-2.5c-6.4-2.1-12.9-4-19.5-5.6c-1.5-0.8-3.3-1.3-5-1.3h-5.5c-1.7,0-3.5,0.4-5,1.2c-18.4,9.9-43.6,15.5-69.2,15.5c-25.6,0-50.8-5.7-69.3-15.5c-1.5-0.8-3.2-1.3-5-1.3h-4c-0.8,0-1.6,0.1-2.4,0.3c-7.2,1.7-14.3,3.8-21.3,6c-3.1,0.9-6.1,1.9-9.1,3c-3.2,1.1-6.4,2.2-9.6,3.4c-8.8,3.3-17.4,6.9-26,10.8l0,0c-10.8,5-21.5,10.4-31.8,16.4l-10.3-16.4l-10.7-17l-81.1-129c-5.4-8.5-16.2-11.8-25.4-7.8c-9.2,4-14.1,14.2-11.5,24l16.6,61.9l18.3,67.9l28.3,105c0.5,2,1.4,3.8,2.4,5.4v4.8c0,5.8,4.8,10.6,10.6,10.6h482.9c5.8,0,10.6-4.8,10.6-10.6v-37.9c0-2.9-1.1-5.6-3.2-7.6C820.9,802,777.9,774.9,731.5,757.5z"/><path d="M449.8,562.2c0,87.8,71.2,159.1,159.1,159.1c87.8,0,159.1-71.2,159.1-159.1c0-87.8-71.2-159.1-159.1-159.1C521,403.1,449.8,474.3,449.8,562.2L449.8,562.2z"/></g>
</svg>